<svg width="86" height="80" viewBox="0 0 86 80" fill="none" xmlns="http://www.w3.org/2000/svg">
<path fill-rule="evenodd" clip-rule="evenodd" d="M7.53578 45.5035C-0.0610685 41.6529 0.812171 37.3601 8.44223 37.8089L10.1505 41.0036L12.5046 33.7032C11.2562 33.2958 10.1356 32.5969 9.22416 31.6876L9.04984 31.4988C7.6603 30.0232 6.802 28.0407 6.802 25.8778V8.22955C6.802 5.96389 7.73002 3.90527 9.2225 2.41471C10.7166 0.925803 12.7802 0 15.0496 0H70.9486C73.2081 0 75.2716 0.930772 76.7674 2.42299C78.2682 3.90858 79.1979 5.97052 79.1979 8.22955V25.8778C79.1979 28.1236 78.2649 30.1822 76.7707 31.6761L76.7558 31.691C76.4404 32.006 76.1001 32.2951 75.7381 32.5555L77.7635 40.6658L79.2842 37.8089C87.1284 37.3534 87.8273 41.9013 79.5249 45.8281L80.8763 47.8917C86.3332 53.4879 85.8219 59.0759 84.9702 72.8983V77.4379C84.9702 78.8473 83.8148 80 82.4036 80H71.4533C70.0422 80 68.8867 78.8473 68.8867 77.4395V75.3809H17.1298V77.4379C17.1298 78.8473 15.9743 80 14.5632 80H3.61285C2.20172 80 1.04625 78.8473 1.04625 77.4395V71.5386C1.04625 71.4011 1.06119 71.2703 1.07447 71.1395C0.244399 60.5316 -0.924347 50.9689 7.53578 45.5035ZM20.812 23.0755L21.3715 19.9453C22.6017 20.2517 23.7057 20.4041 24.6868 20.4041C25.668 20.4041 26.4599 20.3644 27.0592 20.2849V19.1206L25.2579 18.9616C23.6293 18.8142 22.5104 18.425 21.9027 17.7923C21.2968 17.1597 20.993 16.2239 20.993 14.9851C20.993 13.2809 21.3632 12.1083 22.1036 11.4707C22.8457 10.8297 24.1041 10.5101 25.8788 10.5101C27.6552 10.5101 29.2572 10.6774 30.6849 11.0103L30.1852 14.0427C28.9434 13.8407 27.9473 13.7413 27.2019 13.7413C26.4532 13.7413 25.8174 13.7761 25.2977 13.8407V14.9851L26.7388 15.1259C28.4902 15.2981 29.6971 15.7138 30.3645 16.373C31.0319 17.0338 31.3656 17.9497 31.3656 19.1206C31.3656 19.9603 31.2527 20.6691 31.0253 21.2488C30.7978 21.8284 30.5272 22.2673 30.2135 22.5671C29.8997 22.8652 29.4564 23.0971 28.882 23.256C28.3076 23.4167 27.8046 23.5128 27.3696 23.5459C26.938 23.5807 26.3602 23.5956 25.6381 23.5956C23.9016 23.5956 22.2945 23.4233 20.812 23.0755ZM36.1518 23.2958H31.9267L35.1707 10.8115H41.3581L44.602 23.2958H40.3769L39.917 21.3183H36.6117L36.1518 23.2958ZM38.154 14.6456L37.3322 18.1418H39.175L38.3748 14.6456H38.154ZM53.6731 23.2958H45.6645V10.8115H49.6688V20.0994H53.6731V23.2958ZM63.0845 18.5823H59.0802V20.0994H63.9859V23.2958H55.0742V10.8115H63.8863L63.3849 14.0063H59.0802V15.6857H63.0845V18.5823ZM15.0496 2.91487H70.9486C73.8804 2.91487 76.276 5.31633 76.276 8.22955V25.8778C76.276 28.791 73.8688 31.1924 70.9486 31.1924H15.0496C12.1311 31.1924 9.7222 28.8026 9.7222 25.8778V8.22955C9.7222 5.30474 12.1178 2.91487 15.0496 2.91487ZM71.6093 34.0792C71.3902 34.099 71.1727 34.1073 70.9486 34.1073H16.6035L13.8029 43.4134H73.8605L71.6093 34.0792ZM21.5159 58.0821L11.7908 56.8599C9.4931 56.6048 8.87719 57.572 9.65912 59.5445L10.7117 62.0918C11.0487 62.7476 11.4986 63.2229 12.0248 63.5542C12.6407 63.9334 13.3812 64.1206 14.2046 64.1537L22.8789 64.2233C24.974 64.2166 25.8805 63.3819 25.223 61.4641C24.6852 59.6621 23.4533 58.531 21.5159 58.0821ZM64.4873 58.0821L74.2141 56.8599C76.5101 56.6048 77.1244 57.572 76.3441 59.5445L75.2932 62.0918C74.9545 62.7476 74.5046 63.2229 73.9784 63.5542C73.3624 63.9334 72.622 64.1206 71.8002 64.1537L63.126 64.2233C61.0275 64.2166 60.1227 63.3819 60.7802 61.4641C61.3197 59.6621 62.5515 58.531 64.4873 58.0821Z" fill="#FE7B2D"/>
</svg>
