<svg width="23" height="22" viewBox="0 0 23 22" fill="none" xmlns="http://www.w3.org/2000/svg">
<path d="M5.9502 16.216L13.9312 12.371L16.9112 5.25595L9.7952 8.23595L5.9502 16.216ZM12.6912 11.858L8.0922 14.074L10.3082 9.47395L12.6912 11.858ZM11.5002 0.199951C9.36416 0.199951 7.27609 0.83336 5.50004 2.02008C3.72399 3.2068 2.33973 4.89353 1.5223 6.86697C0.704875 8.84041 0.490999 11.0119 0.907719 13.1069C1.32444 15.2019 2.35304 17.1263 3.86345 18.6367C5.37385 20.1471 7.29823 21.1757 9.39322 21.5924C11.4882 22.0092 13.6597 21.7953 15.6332 20.9778C17.6066 20.1604 19.2934 18.7762 20.4801 17.0001C21.6668 15.2241 22.3002 13.136 22.3002 11C22.297 8.13659 21.1581 5.39141 19.1334 3.36671C17.1087 1.342 14.3636 0.203127 11.5002 0.199951ZM11.5002 20.7999C9.56194 20.7999 7.66721 20.2252 6.05561 19.1484C4.44401 18.0715 3.18792 16.541 2.44618 14.7502C1.70444 12.9595 1.51037 10.9891 1.8885 9.08807C2.26664 7.18705 3.2 5.44086 4.57055 4.0703C5.94111 2.69975 7.6873 1.76639 9.58832 1.38826C11.4893 1.01012 13.4598 1.20419 15.2505 1.94593C17.0412 2.68767 18.5718 3.94376 19.6486 5.55536C20.7254 7.16696 21.3002 9.06169 21.3002 11C21.2976 13.5983 20.2642 16.0894 18.4269 17.9267C16.5896 19.764 14.0985 20.7973 11.5002 20.7999Z" fill="#4C4C4C"/>
</svg>
