<svg width="100" height="82" viewBox="0 0 100 82" fill="none" xmlns="http://www.w3.org/2000/svg">
<path fill-rule="evenodd" clip-rule="evenodd" d="M30.0588 42.2161C29.1511 41.8267 28.332 41.2213 27.6396 40.4588C26.9187 39.6646 26.3343 38.6986 25.9308 37.6277C25.9135 37.5816 25.9152 37.5306 25.9355 37.4858C25.9558 37.4409 25.993 37.4059 26.039 37.3885C26.0645 37.379 26.0918 37.3751 26.1189 37.3773C26.1461 37.3794 26.1724 37.3875 26.1961 37.401C28.4974 38.5256 30.341 38.312 31.4877 37.4928C32.0961 37.0581 32.5092 36.4518 32.6888 35.7867C32.8677 35.1229 32.8146 34.3987 32.492 33.7289C31.8859 32.47 30.3291 31.3922 27.5777 31.2132C27.5426 31.2109 27.5088 31.1986 27.4804 31.1779C27.4519 31.1571 27.43 31.1287 27.4171 31.096C27.4041 31.0632 27.4008 31.0275 27.4074 30.9929C27.414 30.9584 27.4304 30.9264 27.4545 30.9007C28.8293 29.3448 30.4879 28.5768 32.1961 28.4832H32.1994C34.0176 28.3846 35.8892 29.0513 37.533 30.3448C38.265 30.9214 38.8375 31.3559 39.3293 31.6762C39.8135 31.9917 40.2223 32.1993 40.6348 32.3284C41.3697 32.5438 41.9373 32.5399 42.6558 32.5348C47.692 32.5043 52.7373 32.4508 57.7731 32.4508C59.3604 32.4733 60.6865 31.4889 62.0637 30.4659C64.1617 28.9072 66.3766 27.2624 69.8709 28.7183C70.8053 29.1058 71.6473 29.7224 72.3559 30.5035C73.0778 31.2987 73.6631 32.2663 74.0692 33.3366C74.0824 33.3722 74.0844 33.4111 74.0749 33.448C74.0653 33.4848 74.0447 33.5178 74.0158 33.5426C73.9868 33.5673 73.951 33.5826 73.9131 33.5863C73.8753 33.5901 73.8371 33.5821 73.8039 33.5635C71.5026 32.4387 69.6588 32.6525 68.5116 33.4727C67.9028 33.9076 67.4895 34.5145 67.3098 35.18C67.1309 35.8441 67.184 36.5682 67.5069 37.2383C68.1135 38.4969 69.6703 39.5734 72.4223 39.7513C72.4714 39.7545 72.5172 39.777 72.5498 39.8139C72.5823 39.8508 72.5989 39.8991 72.5959 39.9482C72.5934 39.9914 72.5755 40.0324 72.5455 40.0638C71.1707 41.6199 69.5114 42.3893 67.8016 42.4824C65.9832 42.5816 64.1117 41.9151 62.467 40.6199C62.234 40.434 62.0086 40.2368 61.7871 40.0433C60.774 39.1571 59.8285 38.3305 57.619 38.3247C52.5221 38.3768 47.3625 38.5123 42.2728 38.4801C41.9992 38.4809 41.726 38.502 41.4574 38.5428C41.1882 38.5836 40.9225 38.6447 40.6625 38.7254C39.7025 39.0968 38.7883 39.8122 37.9613 40.4139C35.5679 42.1555 33.4877 43.6679 30.1291 42.2676C30.1018 42.2565 30.0776 42.2388 30.0588 42.2161ZM9.59037 79.3017C9.19598 79.3017 8.81776 79.145 8.53888 78.8662C8.26001 78.5873 8.10331 78.2092 8.10326 77.8149C8.10331 77.4206 8.26001 77.0424 8.53888 76.7636C8.81776 76.4848 9.19598 76.3281 9.59037 76.3281H12.4126V34.767L6.38119 38.9093C4.51986 40.1796 1.98099 39.7006 0.710477 37.8394C-0.559837 35.9784 -0.0807346 33.4401 1.7806 32.1698L47.5863 0.710409C49.0434 -0.283926 50.9154 -0.206207 52.2697 0.766843L98.2194 32.2805C100.081 33.5508 100.56 36.0892 99.2895 37.9501C98.019 39.8113 95.4801 40.2903 93.6188 39.02L87.5872 34.8833V76.3281H90.4094C90.7997 76.3344 91.1718 76.4938 91.4455 76.772C91.7192 77.0501 91.8726 77.4247 91.8726 77.8149C91.8726 78.2051 91.7192 78.5797 91.4455 78.8578C91.1718 79.136 90.7997 79.2954 90.4094 79.3017H75.143V80.4659C75.143 81.3093 74.4526 82 73.6086 82H67.0621C66.2184 82 65.5278 81.3093 65.5278 80.4659V79.3017H34.4828V80.4659C34.4828 81.3093 33.792 82 32.9484 82H26.4017C25.5578 82 24.8673 81.3093 24.8673 80.4659V79.3017H9.59037Z" fill="#096FA2"/>
</svg>
