<svg width="160" height="46" viewBox="0 0 160 46" fill="none" xmlns="http://www.w3.org/2000/svg">
<path d="M10.2714 37L3.21637 19.0025H8.47164L13.5829 32.6806H13.9069L19.0182 19.0025H24.2015L17.1104 37H10.2714ZM35.1768 37.36C33.3531 37.36 31.6973 36.964 30.2095 36.1721C28.7457 35.3802 27.5819 34.2884 26.718 32.8966C25.8781 31.5048 25.4582 29.921 25.4582 28.1452C25.4582 26.2975 25.8901 24.6537 26.754 23.2139C27.6179 21.7741 28.7937 20.6583 30.2815 19.8664C31.7693 19.0505 33.4131 18.6425 35.2128 18.6425C37.0126 18.6425 38.6324 19.0505 40.0722 19.8664C41.536 20.6583 42.6878 21.7741 43.5277 23.2139C44.3676 24.6297 44.7875 26.2255 44.7875 28.0013C44.7875 28.0492 44.7875 28.1092 44.7875 28.1812C44.7875 28.2532 44.7875 28.3132 44.7875 28.3612H30.3895C30.4375 29.2251 30.6775 30.005 31.1094 30.7009C31.5653 31.3728 32.1413 31.9127 32.8372 32.3206C33.5571 32.7046 34.349 32.8966 35.2128 32.8966C36.0527 32.8966 36.8086 32.7286 37.4805 32.3926C38.1524 32.0567 38.6204 31.6127 38.8843 31.0608H44.2476C44.1276 32.0687 43.6717 33.0645 42.8798 34.0484C42.1119 35.0083 41.056 35.8002 39.7122 36.4241C38.3924 37.048 36.8806 37.36 35.1768 37.36ZM40.0722 27.6413C40.0242 26.7774 39.7842 26.0095 39.3523 25.3376C38.9203 24.6417 38.3444 24.1018 37.6245 23.7178C36.9286 23.3099 36.1367 23.1059 35.2488 23.1059C34.3849 23.1059 33.5931 23.3099 32.8732 23.7178C32.1773 24.1018 31.6013 24.6417 31.1454 25.3376C30.7135 26.0095 30.4735 26.7774 30.4255 27.6413H40.0722ZM48.9413 37V11.4435H53.9446V25.2296C54.2805 23.2379 55.0244 21.6421 56.1763 20.4423C57.3521 19.2425 58.7799 18.6425 60.4597 18.6425C61.8035 18.6425 62.9793 18.9785 63.9872 19.6504C64.995 20.3223 65.7749 21.2822 66.3269 22.53C66.8788 23.7538 67.1547 25.1816 67.1547 26.8134V37H62.1154V27.6053C62.0914 26.3095 61.7075 25.2656 60.9636 24.4737C60.2197 23.6818 59.2478 23.2859 58.048 23.2859C57.2801 23.2859 56.5842 23.4779 55.9603 23.8618C55.3364 24.2458 54.8445 24.7617 54.4845 25.4096C54.1246 26.0575 53.9446 26.7894 53.9446 27.6053V37H48.9413ZM72.7036 37V19.0025H77.7069V37H72.7036ZM75.0433 16.9508L72.0557 10.1837H78.4268L75.4032 16.9508H75.0433ZM91.7354 37.36C89.8876 37.36 88.2199 36.952 86.7321 36.1361C85.2683 35.3202 84.1164 34.2044 83.2766 32.7886C82.4367 31.3728 82.0167 29.777 82.0167 28.0013C82.0167 26.2255 82.4367 24.6297 83.2766 23.2139C84.1164 21.7981 85.2683 20.6823 86.7321 19.8664C88.2199 19.0505 89.8876 18.6425 91.7354 18.6425C93.3672 18.6425 94.843 18.9785 96.1628 19.6504C97.5066 20.2983 98.5864 21.2102 99.4023 22.386C100.242 23.5379 100.734 24.8217 100.878 26.2375H95.9108C95.6468 25.3256 95.1429 24.5817 94.399 24.0058C93.6551 23.4299 92.7672 23.1419 91.7354 23.1419C90.8235 23.1419 90.0076 23.3579 89.2877 23.7898C88.5918 24.1978 88.0399 24.7737 87.632 25.5176C87.224 26.2615 87.02 27.0894 87.02 28.0013C87.02 28.9131 87.224 29.741 87.632 30.4849C88.0399 31.2048 88.5918 31.7807 89.2877 32.2127C90.0076 32.6206 90.8235 32.8246 91.7354 32.8246C92.7672 32.8246 93.6551 32.5366 94.399 31.9607C95.1429 31.3848 95.6468 30.6409 95.9108 29.729H100.878C100.734 31.1688 100.242 32.4766 99.4023 33.6525C98.5864 34.8043 97.5066 35.7162 96.1628 36.3881C94.843 37.036 93.3672 37.36 91.7354 37.36ZM111.343 37.36C109.999 37.36 108.823 37.024 107.815 36.3521C106.807 35.6802 106.028 34.7323 105.476 33.5085C104.924 32.2607 104.648 30.8209 104.648 29.1891V19.0025H109.687L109.723 28.3612C109.723 29.681 110.095 30.7369 110.839 31.5288C111.583 32.3206 112.555 32.7166 113.754 32.7166C114.522 32.7166 115.218 32.5246 115.842 32.1407C116.466 31.7567 116.958 31.2408 117.318 30.5929C117.678 29.945 117.858 29.2011 117.858 28.3612V19.0025H122.861V37H117.858V30.7729C117.522 32.7646 116.766 34.3604 115.59 35.5602C114.438 36.76 113.023 37.36 111.343 37.36ZM128.77 37V11.4435H133.773V37H128.77ZM139.667 37V19.0025H144.67V25.1576C144.982 23.3339 145.666 21.7981 146.722 20.5503C147.802 19.2785 149.194 18.6425 150.897 18.6425C152.121 18.6425 153.129 18.9065 153.921 19.4344C154.737 19.9624 155.325 20.7303 155.685 21.7381C156.069 22.746 156.261 23.9938 156.261 25.4816V27.2094H151.257V26.4895C151.257 25.4816 150.993 24.7137 150.465 24.1858C149.962 23.6339 149.266 23.3579 148.378 23.3579C147.658 23.3579 147.022 23.5499 146.47 23.9338C145.918 24.2938 145.474 24.8097 145.138 25.4816C144.826 26.1535 144.67 26.8854 144.67 27.6773V37H139.667Z" fill="#096FA2"/>
<path d="M78.5833 10.5417L75.2292 18.2084L71.875 10.5417H78.5833Z" fill="#FE7B2D"/>
</svg>
