<svg width="154" height="28" viewBox="0 0 154 28" fill="none" xmlns="http://www.w3.org/2000/svg">
<path d="M7.27139 27L0.216374 9.0025H5.47164L10.5829 22.6806H10.9069L16.0182 9.0025H21.2015L14.1104 27H7.27139ZM32.1768 27.36C30.3531 27.36 28.6973 26.964 27.2095 26.1721C25.7457 25.3802 24.5819 24.2884 23.718 22.8966C22.8781 21.5048 22.4582 19.921 22.4582 18.1452C22.4582 16.2975 22.8901 14.6537 23.754 13.2139C24.6179 11.7741 25.7937 10.6583 27.2815 9.86638C28.7693 9.05049 30.4131 8.64255 32.2128 8.64255C34.0126 8.64255 35.6324 9.05049 37.0722 9.86638C38.536 10.6583 39.6878 11.7741 40.5277 13.2139C41.3676 14.6297 41.7875 16.2255 41.7875 18.0013C41.7875 18.0492 41.7875 18.1092 41.7875 18.1812C41.7875 18.2532 41.7875 18.3132 41.7875 18.3612H27.3895C27.4375 19.2251 27.6775 20.005 28.1094 20.7009C28.5653 21.3728 29.1413 21.9127 29.8372 22.3206C30.5571 22.7046 31.349 22.8966 32.2128 22.8966C33.0527 22.8966 33.8086 22.7286 34.4805 22.3926C35.1524 22.0567 35.6204 21.6127 35.8843 21.0608H41.2476C41.1276 22.0687 40.6717 23.0645 39.8798 24.0484C39.1119 25.0083 38.056 25.8002 36.7122 26.4241C35.3924 27.048 33.8806 27.36 32.1768 27.36ZM37.0722 17.6413C37.0242 16.7774 36.7842 16.0095 36.3523 15.3376C35.9203 14.6417 35.3444 14.1018 34.6245 13.7178C33.9286 13.3099 33.1367 13.1059 32.2488 13.1059C31.3849 13.1059 30.5931 13.3099 29.8732 13.7178C29.1773 14.1018 28.6013 14.6417 28.1454 15.3376C27.7135 16.0095 27.4735 16.7774 27.4255 17.6413H37.0722ZM45.9413 27V1.44355H50.9446V15.2296C51.2805 13.2379 52.0244 11.6421 53.1763 10.4423C54.3521 9.24247 55.7799 8.64255 57.4597 8.64255C58.8035 8.64255 59.9793 8.9785 60.9872 9.65041C61.995 10.3223 62.7749 11.2822 63.3269 12.53C63.8788 13.7538 64.1547 15.1816 64.1547 16.8134V27H59.1154V17.6053C59.0914 16.3095 58.7075 15.2656 57.9636 14.4737C57.2197 13.6818 56.2478 13.2859 55.048 13.2859C54.2801 13.2859 53.5842 13.4779 52.9603 13.8618C52.3364 14.2458 51.8445 14.7617 51.4845 15.4096C51.1246 16.0575 50.9446 16.7894 50.9446 17.6053V27H45.9413ZM69.7036 27V9.0025H74.7069V27H69.7036ZM72.0433 6.95078L69.0557 0.183723H75.4268L72.4032 6.95078H72.0433ZM88.7354 27.36C86.8876 27.36 85.2199 26.952 83.7321 26.1361C82.2683 25.3202 81.1164 24.2044 80.2766 22.7886C79.4367 21.3728 79.0167 19.777 79.0167 18.0013C79.0167 16.2255 79.4367 14.6297 80.2766 13.2139C81.1164 11.7981 82.2683 10.6823 83.7321 9.86638C85.2199 9.05049 86.8876 8.64255 88.7354 8.64255C90.3672 8.64255 91.843 8.9785 93.1628 9.65041C94.5066 10.2983 95.5864 11.2102 96.4023 12.386C97.2422 13.5379 97.7341 14.8217 97.8781 16.2375H92.9108C92.6468 15.3256 92.1429 14.5817 91.399 14.0058C90.6551 13.4299 89.7672 13.1419 88.7354 13.1419C87.8235 13.1419 87.0076 13.3579 86.2877 13.7898C85.5918 14.1978 85.0399 14.7737 84.632 15.5176C84.224 16.2615 84.02 17.0894 84.02 18.0013C84.02 18.9131 84.224 19.741 84.632 20.4849C85.0399 21.2048 85.5918 21.7807 86.2877 22.2127C87.0076 22.6206 87.8235 22.8246 88.7354 22.8246C89.7672 22.8246 90.6551 22.5366 91.399 21.9607C92.1429 21.3848 92.6468 20.6409 92.9108 19.729H97.8781C97.7341 21.1688 97.2422 22.4766 96.4023 23.6525C95.5864 24.8043 94.5066 25.7162 93.1628 26.3881C91.843 27.036 90.3672 27.36 88.7354 27.36ZM108.343 27.36C106.999 27.36 105.823 27.024 104.815 26.3521C103.807 25.6802 103.028 24.7323 102.476 23.5085C101.924 22.2607 101.648 20.8209 101.648 19.1891V9.0025H106.687L106.723 18.3612C106.723 19.681 107.095 20.7369 107.839 21.5288C108.583 22.3206 109.555 22.7166 110.754 22.7166C111.522 22.7166 112.218 22.5246 112.842 22.1407C113.466 21.7567 113.958 21.2408 114.318 20.5929C114.678 19.945 114.858 19.2011 114.858 18.3612V9.0025H119.861V27H114.858V20.7729C114.522 22.7646 113.766 24.3604 112.59 25.5602C111.438 26.76 110.023 27.36 108.343 27.36ZM125.77 27V1.44355H130.773V27H125.77ZM136.667 27V9.0025H141.67V15.1576C141.982 13.3339 142.666 11.7981 143.722 10.5503C144.802 9.27846 146.194 8.64255 147.897 8.64255C149.121 8.64255 150.129 8.90651 150.921 9.43444C151.737 9.96237 152.325 10.7303 152.685 11.7381C153.069 12.746 153.261 13.9938 153.261 15.4816V17.2094H148.257V16.4895C148.257 15.4816 147.993 14.7137 147.465 14.1858C146.962 13.6339 146.266 13.3579 145.378 13.3579C144.658 13.3579 144.022 13.5499 143.47 13.9338C142.918 14.2938 142.474 14.8097 142.138 15.4816C141.826 16.1535 141.67 16.8854 141.67 17.6773V27H136.667Z" fill="#096FA2"/>
</svg>