<svg width="25" height="24" viewBox="0 0 25 24" fill="none" xmlns="http://www.w3.org/2000/svg">
<path d="M9.5 12C11.1569 12 12.5 10.6569 12.5 9C12.5 7.34315 11.1569 6 9.5 6C7.84315 6 6.5 7.34315 6.5 9C6.5 10.6569 7.84315 12 9.5 12Z" stroke="#1F1F1F" stroke-opacity="0.8" stroke-width="2" stroke-linecap="round"/>
<path d="M12.7679 9.00001C13.0332 8.54064 13.47 8.20544 13.9824 8.06816C14.4947 7.93087 15.0406 8.00274 15.5 8.26796C15.9594 8.53318 16.2946 8.97001 16.4319 9.48237C16.5691 9.99473 16.4973 10.5406 16.2321 11C15.9668 11.4594 15.53 11.7946 15.0176 11.9319C14.5053 12.0691 13.9594 11.9973 13.5 11.7321C13.0406 11.4668 12.7054 11.03 12.5681 10.5176C12.4309 10.0053 12.5027 9.45938 12.7679 9.00001Z" stroke="#1F1F1F" stroke-opacity="0.8" stroke-width="2"/>
<path d="M14.3817 19L13.4014 19.1974L13.563 20H14.3817V19ZM12.2809 15.7105L11.6761 14.9142L10.5195 15.7927L11.7528 16.5597L12.2809 15.7105ZM17.3673 18H14.3817V20H17.3673V18ZM17.2778 18.2384C17.2708 18.2186 17.2643 18.181 17.2726 18.1354C17.2805 18.0921 17.2983 18.0593 17.3152 18.0383C17.3475 17.9982 17.3741 18 17.3673 18V20C18.5133 20 19.6415 18.9194 19.1628 17.5699L17.2778 18.2384ZM14.5001 16C16.1417 16 16.9028 17.1811 17.2778 18.2384L19.1628 17.5699C18.6977 16.2588 17.4486 14 14.5001 14V16ZM12.8858 16.5069C13.2703 16.2148 13.7821 16 14.5001 16V14C13.3382 14 12.4029 14.3622 11.6761 14.9142L12.8858 16.5069ZM11.7528 16.5597C12.7919 17.206 13.2272 18.3324 13.4014 19.1974L15.362 18.8026C15.1441 17.7204 14.5375 15.9364 12.8091 14.8614L11.7528 16.5597Z" fill="#33363F"/>
<path d="M16.7246 15.7188C16.8289 15.7984 16.9278 15.8817 17.0205 15.9697C16.9267 15.8815 16.8285 15.7974 16.7246 15.7188ZM15.5 15.1221C15.9503 15.2381 16.3333 15.4321 16.6611 15.6709C16.3257 15.4288 15.9393 15.2398 15.5 15.125V15.1221Z" stroke="#1F1F1F" stroke-opacity="0.8" stroke-width="2"/>
<path d="M9.49953 15C13.071 15 14.0914 17.5512 14.3829 19.0089C14.4912 19.5504 14.0518 20 13.4995 20H5.49953C4.94725 20 4.50782 19.5504 4.61612 19.0089C4.90763 17.5512 5.92799 15 9.49953 15Z" stroke="#1F1F1F" stroke-opacity="0.8" stroke-width="2" stroke-linecap="round"/>
<path d="M19.5 3V7" stroke="#1F1F1F" stroke-opacity="0.8" stroke-width="2" stroke-linecap="round"/>
<path d="M21.5 5H17.5" stroke="#1F1F1F" stroke-opacity="0.8" stroke-width="2" stroke-linecap="round"/>
</svg>
