<svg width="25" height="24" viewBox="0 0 25 24" fill="none" xmlns="http://www.w3.org/2000/svg">
<path fill-rule="evenodd" clip-rule="evenodd" d="M18.6539 15.8462V10.7179C18.6539 7.56923 16.9821 4.93333 14.0385 4.2359V3.53846C14.0385 2.68718 13.3513 2 12.5001 2C11.6488 2 10.9616 2.68718 10.9616 3.53846V4.2359C8.02826 4.93333 6.3462 7.55897 6.3462 10.7179V15.8462L4.29492 17.8974V18.9231H20.7052V17.8974L18.6539 15.8462ZM12.5001 22C13.6283 22 14.5513 21.0769 14.5513 19.9487H10.4488C10.4488 21.0769 11.3718 22 12.5001 22ZM8.39749 16.8718H16.6026V10.7179C16.6026 8.17436 15.0539 6.10256 12.5001 6.10256C9.9462 6.10256 8.39749 8.17436 8.39749 10.7179V16.8718Z" fill="#1F1F1F" fill-opacity="0.8"/>
</svg>
