<svg width="90" height="69" viewBox="0 0 90 69" fill="none" xmlns="http://www.w3.org/2000/svg">
<path d="M48.7442 7.24702C48.4807 6.97475 48.1651 6.75822 47.8161 6.61034C47.467 6.46246 47.0917 6.38624 46.7126 6.38624C46.3334 6.38624 45.9581 6.46246 45.6091 6.61034C45.26 6.75822 44.9444 6.97475 44.681 7.24702L41.6027 10.313C40.7674 9.76837 39.8935 9.28503 38.9881 8.86677C38.0796 8.45352 37.1486 8.0914 36.1996 7.78212V3.08194C36.2035 2.70767 36.1325 2.3364 35.9908 1.98987C35.8491 1.64334 35.6396 1.32852 35.3745 1.06386C35.1094 0.799202 34.7941 0.590023 34.447 0.448579C34.0999 0.307136 33.728 0.236272 33.3531 0.240141H27.4357C27.0654 0.237861 26.6984 0.309627 26.3564 0.451204C26.0143 0.592781 25.704 0.801305 25.444 1.06448C25.1705 1.32383 24.9539 1.63708 24.8081 1.98436C24.6622 2.33165 24.5902 2.70541 24.5966 3.08194V7.42056C23.6106 7.6436 22.6423 7.93845 21.6994 8.30275C20.7869 8.65 19.8988 9.05827 19.0413 9.5248L15.6299 6.16236C15.3842 5.88947 15.0838 5.6712 14.7482 5.52172C14.4125 5.37223 14.0491 5.29486 13.6816 5.29464C13.3046 5.29388 12.9313 5.36906 12.5841 5.51567C12.2369 5.66228 11.9229 5.87731 11.6608 6.1479L7.5107 10.3057C7.24043 10.5679 7.02558 10.8815 6.87887 11.2281C6.73216 11.5746 6.65656 11.947 6.65656 12.3232C6.65656 12.6994 6.73216 13.0718 6.87887 13.4183C7.02558 13.7649 7.24043 14.0785 7.5107 14.3407L10.5817 17.4211C10.0362 18.2526 9.55208 19.1226 9.13309 20.0243C8.7204 20.9343 8.35772 21.866 8.04667 22.8154H3.34607C2.9705 22.8063 2.5971 22.8748 2.24934 23.0166C1.90158 23.1585 1.58697 23.3707 1.32531 23.6398C1.0568 23.9018 0.844985 24.216 0.702965 24.5631C0.560944 24.9101 0.491739 25.2825 0.49963 25.6572V31.5795C0.498158 31.9491 0.57041 32.3152 0.712171 32.6566C0.853933 32.998 1.06237 33.3079 1.32531 33.568C1.58481 33.8414 1.89852 34.0578 2.24644 34.2035C2.59436 34.3492 2.96886 34.4209 3.34607 34.414H7.69177C7.92313 35.3971 8.22076 36.3634 8.58264 37.3064C8.93731 38.231 9.34603 39.1341 9.80668 40.0109L6.41703 43.3371C6.14362 43.5874 5.92665 43.8928 5.78055 44.2331C5.63445 44.5735 5.56254 44.941 5.56962 45.3112C5.56803 45.6877 5.64295 46.0606 5.78985 46.4074C5.93675 46.7542 6.15257 47.0676 6.42427 47.3287L10.5889 51.5299C11.1374 52.0408 11.8596 52.3249 12.6097 52.3249C13.3598 52.3249 14.0819 52.0408 14.6304 51.5299L17.7086 48.4061C18.544 48.9507 19.4178 49.434 20.3233 49.8523C21.2355 50.2625 22.1687 50.6245 23.119 50.937V55.6588C23.1171 56.0326 23.1894 56.403 23.3318 56.7486C23.4741 57.0943 23.6837 57.4083 23.9484 57.6726C24.2131 57.9368 24.5277 58.1461 24.8739 58.2882C25.2201 58.4303 25.5911 58.5025 25.9655 58.5006H31.8973C32.2681 58.5016 32.6353 58.4285 32.9773 58.2857C33.3194 58.1429 33.6294 57.9332 33.8891 57.6691C34.1607 57.4102 34.3757 57.0979 34.5203 56.7519C34.6649 56.4059 34.736 56.0337 34.7293 55.6588V51.3202C35.7149 51.0958 36.6831 50.801 37.6264 50.438C38.5513 50.0701 39.4555 49.6525 40.3352 49.187L43.6887 52.5423C43.9459 52.8136 44.2558 53.0297 44.5995 53.1774C44.9432 53.3251 45.3135 53.4013 45.6877 53.4013C46.0619 53.4013 46.4322 53.3251 46.7759 53.1774C47.1196 53.0297 47.4295 52.8136 47.6867 52.5423L51.8948 48.3916C52.397 47.847 52.6672 47.1286 52.6481 46.3886C52.6556 46.0165 52.589 45.6465 52.4523 45.3002C52.3155 44.9539 52.1113 44.6381 51.8514 44.3712L48.7225 41.2908C49.268 40.4568 49.7521 39.5843 50.171 38.6804C50.5818 37.772 50.9445 36.8428 51.2575 35.8964H55.9798C56.3547 35.9003 56.7265 35.8294 57.0736 35.688C57.4207 35.5465 57.7361 35.3373 58.0012 35.0727C58.2662 34.808 58.4758 34.4932 58.6174 34.1467C58.7591 33.8001 58.8301 33.4289 58.8262 33.0546V27.1324C58.8302 26.7624 58.759 26.3955 58.6171 26.0538C58.4752 25.712 58.2655 25.4025 58.0005 25.1438C57.741 24.8704 57.4273 24.654 57.0794 24.5083C56.7315 24.3627 56.357 24.291 55.9798 24.2978H51.6341C51.397 23.3337 51.1019 22.3847 50.7505 21.456C50.4038 20.5351 49.9949 19.6388 49.5264 18.7733L52.8871 15.3747C53.1618 15.1251 53.3801 14.82 53.5275 14.4796C53.6749 14.1392 53.7479 13.7714 53.7417 13.4006C53.7433 13.0241 53.6684 12.6512 53.5215 12.3045C53.3746 11.9577 53.1588 11.6443 52.8871 11.3832L48.7442 7.24702ZM81.5615 39.0636C81.2221 38.8279 80.803 38.7358 80.3959 38.8077C79.9887 38.8795 79.6266 39.1093 79.3886 39.4468L77.998 41.3703C77.494 41.1612 76.9761 40.9872 76.448 40.8497C75.9158 40.7128 75.3767 40.6042 74.8329 40.5243L74.3766 37.9645C74.3425 37.7617 74.2684 37.5677 74.1587 37.3937C74.0489 37.2197 73.9057 37.0692 73.7373 36.9508C73.5689 36.8324 73.3787 36.7486 73.1776 36.7042C72.9765 36.6597 72.7686 36.6555 72.5659 36.6918L69.3501 37.2558C69.1487 37.2883 68.9559 37.3607 68.783 37.4687C68.6101 37.5768 68.4606 37.7183 68.3433 37.8849C68.2182 38.0516 68.1297 38.2427 68.0835 38.4458C68.0374 38.6488 68.0346 38.8594 68.0753 39.0636L68.4809 41.4064C67.9814 41.6126 67.4973 41.8543 67.0324 42.1296C66.5633 42.4133 66.1133 42.7273 65.6852 43.0696L63.5123 41.5728C63.3512 41.4473 63.1652 41.3573 62.9668 41.3087C62.7683 41.2601 62.5617 41.254 62.3607 41.2908C62.1543 41.3269 61.9574 41.4046 61.7818 41.5189C61.6063 41.6333 61.4558 41.7819 61.3395 41.956L59.4781 44.6026C59.3602 44.77 59.2766 44.9591 59.2321 45.1589C59.1876 45.3587 59.1831 45.5653 59.2188 45.7668C59.2544 45.9684 59.3296 46.1609 59.44 46.3334C59.5503 46.5059 59.6937 46.6549 59.8619 46.7719L61.8175 48.153C61.6225 48.6621 61.4627 49.184 61.3395 49.7149C61.1885 50.255 61.0676 50.803 60.9773 51.3564L58.4423 51.7685C58.2384 51.8014 58.0433 51.8755 57.869 51.9861C57.6947 52.0968 57.5447 52.2417 57.4283 52.4121C57.3059 52.5786 57.2195 52.7688 57.1746 52.9704C57.1297 53.1721 57.1273 53.3809 57.1676 53.5835L57.7181 56.7941C57.75 56.9952 57.823 57.1876 57.9327 57.3593C58.0423 57.531 58.1862 57.6783 58.3554 57.792C58.5204 57.9179 58.7105 58.007 58.913 58.0532C59.1154 58.0993 59.3254 58.1015 59.5288 58.0595L61.8755 57.6546C62.0834 58.1527 62.3254 58.6359 62.5997 59.1008C62.8753 59.5771 63.1801 60.0359 63.5123 60.4747L62.0058 62.644C61.8802 62.8049 61.79 62.9906 61.7414 63.1887C61.6927 63.3869 61.6865 63.5931 61.7234 63.7938C61.7604 63.9977 61.8378 64.1923 61.951 64.3661C62.0641 64.5399 62.2108 64.6895 62.3825 64.8061L65.0333 66.6934C65.3788 66.9215 65.7994 67.007 66.2067 66.932C66.4096 66.9007 66.6042 66.8296 66.7795 66.7229C66.9548 66.6162 67.1071 66.4759 67.2279 66.3102L68.604 64.3216C69.1081 64.5372 69.6289 64.7113 70.1613 64.8423C70.6917 64.9867 71.2313 65.0954 71.7764 65.1676L72.2182 67.7274C72.2503 67.9323 72.324 68.1285 72.4348 68.3038C72.5457 68.4792 72.6914 68.63 72.8628 68.747C73.0302 68.868 73.2209 68.953 73.4229 68.9966C73.6249 69.0401 73.8337 69.0413 74.0362 69.0001L77.252 68.4433C77.4528 68.4094 77.6447 68.3357 77.8164 68.2264C77.9881 68.1171 78.1361 67.9744 78.2515 67.807C78.3777 67.6423 78.4669 67.4525 78.5131 67.2504C78.5594 67.0483 78.5615 66.8386 78.5195 66.6356L78.1139 64.2855C78.6128 64.078 79.0968 63.8364 79.5625 63.5624C80.0332 63.2731 80.4823 62.9694 80.9169 62.644L83.0897 64.1481C83.2553 64.271 83.4441 64.3589 83.6448 64.4066C83.8455 64.4544 84.0537 64.4608 84.257 64.4257C84.4602 64.3905 84.6542 64.3144 84.8271 64.202C84.9999 64.0897 85.1481 63.9434 85.2626 63.7721L87.153 61.1183C87.3814 60.7734 87.4671 60.3535 87.392 59.9468C87.3271 59.5383 87.1032 59.1719 86.7691 58.9273L84.7773 57.5534C84.9932 57.0526 85.1676 56.5351 85.2988 56.0059C85.441 55.4753 85.5523 54.9369 85.632 54.3934L88.1887 53.9451C88.3927 53.9129 88.5881 53.8401 88.7634 53.7311C88.9386 53.622 89.0902 53.479 89.2091 53.3104C89.328 53.1418 89.4117 52.9511 89.4554 52.7496C89.4991 52.5481 89.5018 52.3399 89.4634 52.1373L88.9057 48.9267C88.8719 48.7253 88.7981 48.5325 88.6887 48.3599C88.5792 48.1873 88.4363 48.0383 88.2684 47.9216C88.1004 47.7987 87.909 47.7115 87.7059 47.6655C87.5028 47.6195 87.2924 47.6156 87.0878 47.6541L84.7483 48.0662C84.5366 47.5699 84.2947 47.087 84.0241 46.62C83.7405 46.1295 83.421 45.6606 83.068 45.2172L84.5745 43.0479C84.6989 42.8864 84.7877 42.7005 84.8352 42.5024C84.8826 42.3043 84.8876 42.0983 84.8497 41.8982C84.8152 41.6924 84.7389 41.4958 84.6255 41.3205C84.5122 41.1452 84.3642 40.9948 84.1906 40.8786L81.5615 39.0636ZM72.3196 47.1913C73.0761 47.0546 73.8526 47.0743 74.6011 47.2491C75.3235 47.4132 76.0072 47.7152 76.6146 48.1386C77.2189 48.5668 77.7352 49.1069 78.1356 49.7294C78.7497 50.6906 79.0657 51.8115 79.0438 52.9513C79.0219 54.0912 78.6631 55.1991 78.0125 56.1361C77.5812 56.7374 77.0407 57.2525 76.4191 57.6546C75.7725 58.0671 75.0502 58.3473 74.2943 58.4789C73.5383 58.6105 72.7637 58.5908 72.0154 58.4211C70.5546 58.0945 69.2834 57.2024 68.4809 55.9408C68.0668 55.2967 67.7861 54.5763 67.6552 53.8222C67.5183 53.0669 67.538 52.2917 67.7132 51.5444C67.8709 50.8248 68.166 50.1423 68.5823 49.5341C69.0113 48.9309 69.5522 48.4154 70.1757 48.0156C70.8209 47.6022 71.5425 47.3219 72.2979 47.1913H72.3196ZM29.6593 17.761C31.2156 17.7528 32.7576 18.0578 34.1933 18.6576C35.5723 19.2445 36.828 20.086 37.8944 21.1378C38.9496 22.1997 39.7906 23.4541 40.3715 24.8329C40.9689 26.2662 41.2765 27.8034 41.2765 29.3559C41.2765 30.9084 40.9689 32.4456 40.3715 33.8789C39.2089 36.6689 36.9879 38.8863 34.1933 40.047C32.7576 40.6435 31.218 40.9506 29.6629 40.9506C28.1079 40.9506 26.5682 40.6435 25.1325 40.047C23.7515 39.4671 22.495 38.6275 21.4314 37.574C20.3779 36.5093 19.535 35.2557 18.9471 33.8789C18.3497 32.4456 18.0421 30.9084 18.0421 29.3559C18.0421 27.8034 18.3497 26.2662 18.9471 24.8329C20.1161 22.0455 22.3347 19.8279 25.1253 18.6576C26.5583 18.0572 28.098 17.7522 29.6521 17.761H29.6593Z" fill="black"/>
</svg>
