<svg width="25" height="24" viewBox="0 0 25 24" fill="none" xmlns="http://www.w3.org/2000/svg">
<path fill-rule="evenodd" clip-rule="evenodd" d="M22.5 12C22.5 15.0134 21.1672 17.7154 19.0588 19.5488C17.3031 21.0756 15.0095 22 12.5 22C9.99052 22 7.69694 21.0756 5.94117 19.5488C3.83285 17.7154 2.5 15.0134 2.5 12C2.5 6.47715 6.97715 2 12.5 2C18.0228 2 22.5 6.47715 22.5 12ZM12.5 19C14.2567 19 15.8622 18.3529 17.0912 17.2842C17.2327 17.1611 17.3692 17.0325 17.5003 16.8986C16.4194 15.1503 14.5833 14 12.5 14C10.4167 14 8.5806 15.1503 7.49969 16.8986C7.63086 17.0325 7.76735 17.1611 7.90884 17.2842C9.13788 18.3529 10.7434 19 12.5 19ZM12.5 12C14.1569 12 15.5 10.6569 15.5 9C15.5 7.34315 14.1569 6 12.5 6C10.8431 6 9.5 7.34315 9.5 9C9.5 10.6569 10.8431 12 12.5 12Z" fill="#1F1F1F" fill-opacity="0.8"/>
</svg>
